# xmcd CD database file
#
# Track frame offsets:
#        150
#        20474
#        41731
#        69256
#        82857
#        103061
#        129477
#        151467
#        170770
#
# Disc length: 2746 seconds
#
# Revision: 0
# Processed by: cddbd v1.5.2PL0 Copyright (c) Steve Scherf et al.
# Submitted via: CUERipper 2.1.5
#
DISCID=6d0ab809
DTITLE=Giles Robson - For Those Who Need The Blues
DYEAR=2016
DGENRE=Blues
TTITLE0=01 Shady Heart
TTITLE1=02 Sarah Lee
TTITLE2=03 Where You Been?
TTITLE3=04 Andy Steps Out
TTITLE4=05 Bound For The Border
TTITLE5=06 Start A War
TTITLE6=07 G.R. Shuffle
TTITLE7=08 Summa That Good Stuff
TTITLE8=09 A Walter Shade Of Blue
EXTD=
EXTT0=
EXTT1=
EXTT2=
EXTT3=
EXTT4=
EXTT5=
EXTT6=
EXTT7=
EXTT8=
PLAYORDER=
